<svg xmlns="http://www.w3.org/2000/svg" width="560" height="648" viewBox="0 0 560 648"><defs><filter id="topics-glow" x="-60%" y="-60%" width="220%" height="220%"><feGaussianBlur stdDeviation="3" result="blur" /><feMerge><feMergeNode in="blur" /><feMergeNode in="SourceGraphic" /></feMerge></filter></defs><rect x="0.5" y="0.5" width="559" height="647" rx="20" fill="#0d1117" stroke="#30363d" stroke-width="1" /><text x="30" y="42" fill="#f0f6fc" font-family="Segoe UI, Helvetica, Arial, sans-serif" font-size="17" font-weight="700">Topics Breakdown</text><g filter="url(#topics-glow)"><path d="M 150.00,68.00 A 104,104 0 0 1 251.92,151.31 L 210.76,159.67 A 62,62 0 0 0 150.00,110.00 Z" fill="#58a6ff" stroke="#0d1117" stroke-width="2" /><path d="M 251.92,151.31 A 104,104 0 0 1 241.57,221.31 L 204.59,201.39 A 62,62 0 0 0 210.76,159.67 Z" fill="#3fb950" stroke="#0d1117" stroke-width="2" /><path d="M 241.57,221.31 A 104,104 0 0 1 203.73,261.05 L 182.03,225.09 A 62,62 0 0 0 204.59,201.39 Z" fill="#f778ba" stroke="#0d1117" stroke-width="2" /><path d="M 203.73,261.05 A 104,104 0 0 1 156.47,275.80 L 153.86,233.88 A 62,62 0 0 0 182.03,225.09 Z" fill="#d29922" stroke="#0d1117" stroke-width="2" /><path d="M 156.47,275.80 A 104,104 0 0 1 121.67,272.07 L 133.11,231.66 A 62,62 0 0 0 153.86,233.88 Z" fill="#a371f7" stroke="#0d1117" stroke-width="2" /><path d="M 121.67,272.07 A 104,104 0 0 1 96.27,261.05 L 117.97,225.09 A 62,62 0 0 0 133.11,231.66 Z" fill="#39c5cf" stroke="#0d1117" stroke-width="2" /><path d="M 96.27,261.05 A 104,104 0 0 1 77.28,246.35 L 106.65,216.33 A 62,62 0 0 0 117.97,225.09 Z" fill="#f85149" stroke="#0d1117" stroke-width="2" /><path d="M 77.28,246.35 A 104,104 0 0 1 63.18,229.25 L 98.24,206.13 A 62,62 0 0 0 106.65,216.33 Z" fill="#79c0ff" stroke="#0d1117" stroke-width="2" /><path d="M 63.18,229.25 A 104,104 0 0 1 150.00,68.00 L 150.00,110.00 A 62,62 0 0 0 98.24,206.13 Z" fill="#6e7681" stroke="#0d1117" stroke-width="2" /></g><circle cx="150" cy="172" r="62" fill="#0d1117" /><text x="150" y="166" text-anchor="middle" fill="#f0f6fc" font-family="Segoe UI, Helvetica, Arial, sans-serif" font-size="36" font-weight="700">353</text><text x="150" y="190" text-anchor="middle" fill="#8b949e" font-family="Segoe UI, Helvetica, Arial, sans-serif" font-size="12">topics tagged</text><rect x="320" y="96" width="210" height="46" rx="10" fill="#161b22" stroke="#30363d" stroke-width="1" /><circle cx="338" cy="119" r="6" fill="#58a6ff" /><text x="354" y="116" fill="#e6edf3" font-family="Segoe UI, Helvetica, Arial, sans-serif" font-size="14" font-weight="600">Database</text><text x="354" y="133" fill="#8b949e" font-family="Segoe UI, Helvetica, Arial, sans-serif" font-size="11.5">77 solved &#183; 22%</text><rect x="320" y="154" width="210" height="46" rx="10" fill="#161b22" stroke="#30363d" stroke-width="1" /><circle cx="338" cy="177" r="6" fill="#3fb950" /><text x="354" y="174" fill="#e6edf3" font-family="Segoe UI, Helvetica, Arial, sans-serif" font-size="14" font-weight="600">Array</text><text x="354" y="191" fill="#8b949e" font-family="Segoe UI, Helvetica, Arial, sans-serif" font-size="11.5">39 solved &#183; 11%</text><rect x="320" y="212" width="210" height="46" rx="10" fill="#161b22" stroke="#30363d" stroke-width="1" /><circle cx="338" cy="235" r="6" fill="#f778ba" /><text x="354" y="232" fill="#e6edf3" font-family="Segoe UI, Helvetica, Arial, sans-serif" font-size="14" font-weight="600">Hash Table</text><text x="354" y="249" fill="#8b949e" font-family="Segoe UI, Helvetica, Arial, sans-serif" font-size="11.5">30 solved &#183; 8%</text><rect x="320" y="270" width="210" height="46" rx="10" fill="#161b22" stroke="#30363d" stroke-width="1" /><circle cx="338" cy="293" r="6" fill="#d29922" /><text x="354" y="290" fill="#e6edf3" font-family="Segoe UI, Helvetica, Arial, sans-serif" font-size="14" font-weight="600">String</text><text x="354" y="307" fill="#8b949e" font-family="Segoe UI, Helvetica, Arial, sans-serif" font-size="11.5">27 solved &#183; 8%</text><rect x="320" y="328" width="210" height="46" rx="10" fill="#161b22" stroke="#30363d" stroke-width="1" /><circle cx="338" cy="351" r="6" fill="#a371f7" /><text x="354" y="348" fill="#e6edf3" font-family="Segoe UI, Helvetica, Arial, sans-serif" font-size="14" font-weight="600">Math</text><text x="354" y="365" fill="#8b949e" font-family="Segoe UI, Helvetica, Arial, sans-serif" font-size="11.5">19 solved &#183; 5%</text><rect x="320" y="386" width="210" height="46" rx="10" fill="#161b22" stroke="#30363d" stroke-width="1" /><circle cx="338" cy="409" r="6" fill="#39c5cf" /><text x="354" y="406" fill="#e6edf3" font-family="Segoe UI, Helvetica, Arial, sans-serif" font-size="14" font-weight="600">Two Pointers</text><text x="354" y="423" fill="#8b949e" font-family="Segoe UI, Helvetica, Arial, sans-serif" font-size="11.5">15 solved &#183; 4%</text><rect x="320" y="444" width="210" height="46" rx="10" fill="#161b22" stroke="#30363d" stroke-width="1" /><circle cx="338" cy="467" r="6" fill="#f85149" /><text x="354" y="464" fill="#e6edf3" font-family="Segoe UI, Helvetica, Arial, sans-serif" font-size="14" font-weight="600">Stack</text><text x="354" y="481" fill="#8b949e" font-family="Segoe UI, Helvetica, Arial, sans-serif" font-size="11.5">13 solved &#183; 4%</text><rect x="320" y="502" width="210" height="46" rx="10" fill="#161b22" stroke="#30363d" stroke-width="1" /><circle cx="338" cy="525" r="6" fill="#79c0ff" /><text x="354" y="522" fill="#e6edf3" font-family="Segoe UI, Helvetica, Arial, sans-serif" font-size="14" font-weight="600">Linked List</text><text x="354" y="539" fill="#8b949e" font-family="Segoe UI, Helvetica, Arial, sans-serif" font-size="11.5">12 solved &#183; 3%</text><rect x="320" y="560" width="210" height="46" rx="10" fill="#161b22" stroke="#30363d" stroke-width="1" /><circle cx="338" cy="583" r="6" fill="#6e7681" /><text x="354" y="580" fill="#e6edf3" font-family="Segoe UI, Helvetica, Arial, sans-serif" font-size="14" font-weight="600">Other</text><text x="354" y="597" fill="#8b949e" font-family="Segoe UI, Helvetica, Arial, sans-serif" font-size="11.5">121 solved &#183; 34%</text></svg>