<svg xmlns="http://www.w3.org/2000/svg" width="560" height="648" viewBox="0 0 560 648"><defs><filter id="topics-glow" x="-60%" y="-60%" width="220%" height="220%"><feGaussianBlur stdDeviation="3" result="blur" /><feMerge><feMergeNode in="blur" /><feMergeNode in="SourceGraphic" /></feMerge></filter></defs><rect x="0.5" y="0.5" width="559" height="647" rx="20" fill="#0d1117" stroke="#30363d" stroke-width="1" /><text x="30" y="42" fill="#f0f6fc" font-family="Segoe UI, Helvetica, Arial, sans-serif" font-size="17" font-weight="700">Topics Breakdown</text><g filter="url(#topics-glow)"><path d="M 150.00,68.00 A 104,104 0 0 1 242.21,123.90 L 204.97,143.32 A 62,62 0 0 0 150.00,110.00 Z" fill="#58a6ff" stroke="#0d1117" stroke-width="2" /><path d="M 242.21,123.90 A 104,104 0 0 1 248.70,204.77 L 208.84,191.54 A 62,62 0 0 0 204.97,143.32 Z" fill="#3fb950" stroke="#0d1117" stroke-width="2" /><path d="M 248.70,204.77 A 104,104 0 0 1 201.03,262.62 L 180.42,226.02 A 62,62 0 0 0 208.84,191.54 Z" fill="#f778ba" stroke="#0d1117" stroke-width="2" /><path d="M 201.03,262.62 A 104,104 0 0 1 146.67,275.95 L 148.01,233.97 A 62,62 0 0 0 180.42,226.02 Z" fill="#d29922" stroke="#0d1117" stroke-width="2" /><path d="M 146.67,275.95 A 104,104 0 0 1 120.41,271.70 L 132.36,231.44 A 62,62 0 0 0 148.01,233.97 Z" fill="#a371f7" stroke="#0d1117" stroke-width="2" /><path d="M 120.41,271.70 A 104,104 0 0 1 96.09,260.93 L 117.86,225.02 A 62,62 0 0 0 132.36,231.44 Z" fill="#39c5cf" stroke="#0d1117" stroke-width="2" /><path d="M 96.09,260.93 A 104,104 0 0 1 75.29,244.35 L 105.46,215.13 A 62,62 0 0 0 117.86,225.02 Z" fill="#f85149" stroke="#0d1117" stroke-width="2" /><path d="M 75.29,244.35 A 104,104 0 0 1 62.84,228.74 L 98.04,205.82 A 62,62 0 0 0 105.46,215.13 Z" fill="#79c0ff" stroke="#0d1117" stroke-width="2" /><path d="M 62.84,228.74 A 104,104 0 0 1 150.00,68.00 L 150.00,110.00 A 62,62 0 0 0 98.04,205.82 Z" fill="#6e7681" stroke="#0d1117" stroke-width="2" /></g><circle cx="150" cy="172" r="62" fill="#0d1117" /><text x="150" y="166" text-anchor="middle" fill="#f0f6fc" font-family="Segoe UI, Helvetica, Arial, sans-serif" font-size="36" font-weight="700">196</text><text x="150" y="190" text-anchor="middle" fill="#8b949e" font-family="Segoe UI, Helvetica, Arial, sans-serif" font-size="12">topics tagged</text><rect x="320" y="96" width="210" height="46" rx="10" fill="#161b22" stroke="#30363d" stroke-width="1" /><circle cx="338" cy="119" r="6" fill="#58a6ff" /><text x="354" y="116" fill="#e6edf3" font-family="Segoe UI, Helvetica, Arial, sans-serif" font-size="14" font-weight="600">Array</text><text x="354" y="133" fill="#8b949e" font-family="Segoe UI, Helvetica, Arial, sans-serif" font-size="11.5">34 solved &#183; 17%</text><rect x="320" y="154" width="210" height="46" rx="10" fill="#161b22" stroke="#30363d" stroke-width="1" /><circle cx="338" cy="177" r="6" fill="#3fb950" /><text x="354" y="174" fill="#e6edf3" font-family="Segoe UI, Helvetica, Arial, sans-serif" font-size="14" font-weight="600">Hash Table</text><text x="354" y="191" fill="#8b949e" font-family="Segoe UI, Helvetica, Arial, sans-serif" font-size="11.5">25 solved &#183; 13%</text><rect x="320" y="212" width="210" height="46" rx="10" fill="#161b22" stroke="#30363d" stroke-width="1" /><circle cx="338" cy="235" r="6" fill="#f778ba" /><text x="354" y="232" fill="#e6edf3" font-family="Segoe UI, Helvetica, Arial, sans-serif" font-size="14" font-weight="600">String</text><text x="354" y="249" fill="#8b949e" font-family="Segoe UI, Helvetica, Arial, sans-serif" font-size="11.5">23 solved &#183; 12%</text><rect x="320" y="270" width="210" height="46" rx="10" fill="#161b22" stroke="#30363d" stroke-width="1" /><circle cx="338" cy="293" r="6" fill="#d29922" /><text x="354" y="290" fill="#e6edf3" font-family="Segoe UI, Helvetica, Arial, sans-serif" font-size="14" font-weight="600">Math</text><text x="354" y="307" fill="#8b949e" font-family="Segoe UI, Helvetica, Arial, sans-serif" font-size="11.5">17 solved &#183; 9%</text><rect x="320" y="328" width="210" height="46" rx="10" fill="#161b22" stroke="#30363d" stroke-width="1" /><circle cx="338" cy="351" r="6" fill="#a371f7" /><text x="354" y="348" fill="#e6edf3" font-family="Segoe UI, Helvetica, Arial, sans-serif" font-size="14" font-weight="600">Counting</text><text x="354" y="365" fill="#8b949e" font-family="Segoe UI, Helvetica, Arial, sans-serif" font-size="11.5">8 solved &#183; 4%</text><rect x="320" y="386" width="210" height="46" rx="10" fill="#161b22" stroke="#30363d" stroke-width="1" /><circle cx="338" cy="409" r="6" fill="#39c5cf" /><text x="354" y="406" fill="#e6edf3" font-family="Segoe UI, Helvetica, Arial, sans-serif" font-size="14" font-weight="600">Sorting</text><text x="354" y="423" fill="#8b949e" font-family="Segoe UI, Helvetica, Arial, sans-serif" font-size="11.5">8 solved &#183; 4%</text><rect x="320" y="444" width="210" height="46" rx="10" fill="#161b22" stroke="#30363d" stroke-width="1" /><circle cx="338" cy="467" r="6" fill="#f85149" /><text x="354" y="464" fill="#e6edf3" font-family="Segoe UI, Helvetica, Arial, sans-serif" font-size="14" font-weight="600">Two Pointers</text><text x="354" y="481" fill="#8b949e" font-family="Segoe UI, Helvetica, Arial, sans-serif" font-size="11.5">8 solved &#183; 4%</text><rect x="320" y="502" width="210" height="46" rx="10" fill="#161b22" stroke="#30363d" stroke-width="1" /><circle cx="338" cy="525" r="6" fill="#79c0ff" /><text x="354" y="522" fill="#e6edf3" font-family="Segoe UI, Helvetica, Arial, sans-serif" font-size="14" font-weight="600">Binary Search</text><text x="354" y="539" fill="#8b949e" font-family="Segoe UI, Helvetica, Arial, sans-serif" font-size="11.5">6 solved &#183; 3%</text><rect x="320" y="560" width="210" height="46" rx="10" fill="#161b22" stroke="#30363d" stroke-width="1" /><circle cx="338" cy="583" r="6" fill="#6e7681" /><text x="354" y="580" fill="#e6edf3" font-family="Segoe UI, Helvetica, Arial, sans-serif" font-size="14" font-weight="600">Other</text><text x="354" y="597" fill="#8b949e" font-family="Segoe UI, Helvetica, Arial, sans-serif" font-size="11.5">67 solved &#183; 34%</text></svg>